<svg aria-hidden="true" focusable="false" data-prefix="fas" data-icon="snowflake" class="svg-inline--fa fa-snowflake fa-w-14" role="img" xmlns="http://www.w3.org/2000/svg" >
	<symbol id="snow" viewBox="0 0 448 512">
		<path  d="M440.3 345.2l-33.8-19.5 26-7c8.2-2.2 13.1-10.7 10.9-18.9l-4-14.9c-2.2-8.2-10.7-13.1-18.9-10.9l-70.8 19-63.9-37 63.8-36.9 70.8 19c8.2 2.2 16.7-2.7 18.9-10.9l4-14.9c2.2-8.2-2.7-16.7-10.9-18.9l-26-7 33.8-19.5c7.4-4.3 9.9-13.7 5.7-21.1L430.4 119c-4.3-7.4-13.7-9.9-21.1-5.7l-33.8 19.5 7-26c2.2-8.2-2.7-16.7-10.9-18.9l-14.9-4c-8.2-2.2-16.7 2.7-18.9 10.9l-19 70.8-62.8 36.2v-77.5l53.7-53.7c6.2-6.2 6.2-16.4 0-22.6l-11.3-11.3c-6.2-6.2-16.4-6.2-22.6 0L256 56.4V16c0-8.8-7.2-16-16-16h-32c-8.8 0-16 7.2-16 16v40.4l-19.7-19.7c-6.2-6.2-16.4-6.2-22.6 0L138.3 48c-6.3 6.2-6.3 16.4 0 22.6l53.7 53.7v77.5l-62.8-36.2-19-70.8c-2.2-8.2-10.7-13.1-18.9-10.9l-14.9 4c-8.2 2.2-13.1 10.7-10.9 18.9l7 26-33.8-19.5c-7.4-4.3-16.8-1.7-21.1 5.7L2.1 145.7c-4.3 7.4-1.7 16.8 5.7 21.1l33.8 19.5-26 7c-8.3 2.2-13.2 10.7-11 19l4 14.9c2.2 8.2 10.7 13.1 18.9 10.9l70.8-19 63.8 36.9-63.8 36.9-70.8-19c-8.2-2.2-16.7 2.7-18.9 10.9l-4 14.9c-2.2 8.2 2.7 16.7 10.9 18.9l26 7-33.8 19.6c-7.4 4.3-9.9 13.7-5.7 21.1l15.5 26.8c4.3 7.4 13.7 9.9 21.1 5.7l33.8-19.5-7 26c-2.2 8.2 2.7 16.7 10.9 18.9l14.9 4c8.2 2.2 16.7-2.7 18.9-10.9l19-70.8 62.8-36.2v77.5l-53.7 53.7c-6.3 6.2-6.3 16.4 0 22.6l11.3 11.3c6.2 6.2 16.4 6.2 22.6 0l19.7-19.7V496c0 8.8 7.2 16 16 16h32c8.8 0 16-7.2 16-16v-40.4l19.7 19.7c6.2 6.2 16.4 6.2 22.6 0l11.3-11.3c6.2-6.2 6.2-16.4 0-22.6L256 387.7v-77.5l62.8 36.2 19 70.8c2.2 8.2 10.7 13.1 18.9 10.9l14.9-4c8.2-2.2 13.1-10.7 10.9-18.9l-7-26 33.8 19.5c7.4 4.3 16.8 1.7 21.1-5.7l15.5-26.8c4.3-7.3 1.8-16.8-5.6-21z"></path>
	</symbol>

	<symbol id="sleet" viewBox="0 0 100 100">
		<path d="M21.1068 69.6109C19.8005 68.8547 18.1161 69.3016 17.3599 70.6422L6.35987 89.8922C5.60362 91.2156 6.06769 92.9 7.39112 93.6391C7.82081 93.8797 8.28487 94 8.74894 94C9.69425 94 10.6224 93.5016 11.138 92.6078L22.138 73.3578C22.8943 72.0516 22.4302 70.3672 21.1068 69.6109ZM77.4989 28C77.3958 28 77.3099 28.0344 77.2239 28.0344C77.413 27.1406 77.4989 26.2125 77.4989 25.25C77.4989 17.6531 71.3458 11.5 63.7489 11.5C59.5208 11.5 55.7911 13.4422 53.2646 16.45C50.0677 10.2625 43.6911 6 36.2489 6C25.6271 6 16.9989 14.6109 16.9989 25.25C16.9989 26.5047 17.1364 27.7078 17.3599 28.8937C10.7771 31.0594 5.99894 37.1953 5.99894 44.5C5.99894 53.6094 13.3896 61 22.4989 61H77.4989C86.6083 61 93.9989 53.6094 93.9989 44.5C93.9989 35.3906 86.6083 28 77.4989 28Z" />
		<path d="M61.3599 70.6422C62.1161 69.3016 63.8005 68.8547 65.1067 69.6109C66.4302 70.3672 66.8942 72.0516 66.138 73.3578L55.138 92.6078C54.6224 93.5016 53.6942 94 52.7489 94C52.2849 94 51.8208 93.8797 51.3911 93.6391C50.0677 92.9 49.6036 91.2156 50.3599 89.8922L61.3599 70.6422Z" />
		<path d="M87.5489 86.7455L82.3978 84L87.5489 81.2545C87.9762 81.0268 88.1271 80.5028 87.8833 80.0931L87.1777 78.9069C86.934 78.4972 86.391 78.362 85.9742 78.6072L80.9489 81.5643L81.0748 75.8618C81.0852 75.3889 80.6931 75 80.2056 75H78.7944C78.307 75 77.9148 75.3889 77.9253 75.8618L78.0511 81.5643L73.0258 78.6073C72.609 78.362 72.066 78.4972 71.8223 78.9069L71.1167 80.0931C70.873 80.5028 71.0239 81.0269 71.4511 81.2546L76.6022 84L71.4511 86.7455C71.0238 86.9732 70.8729 87.4972 71.1167 87.9069L71.8223 89.0931C72.066 89.5028 72.609 89.638 73.0258 89.3928L78.0511 86.4357L77.9252 92.1382C77.9148 92.6111 78.307 93 78.7944 93H80.2056C80.6931 93 81.0852 92.6111 81.0748 92.1382L80.9489 86.4357L85.9742 89.3927C86.391 89.638 86.934 89.5028 87.1777 89.0931L87.8833 87.9069C88.127 87.4972 87.9762 86.9732 87.5489 86.7455V86.7455Z" />
		<path d="M42.5489 86.7455L37.3978 84L42.5489 81.2545C42.9762 81.0268 43.1271 80.5028 42.8833 80.0931L42.1777 78.9069C41.934 78.4972 41.391 78.362 40.9742 78.6072L35.9489 81.5643L36.0748 75.8618C36.0852 75.3889 35.6931 75 35.2056 75H33.7944C33.307 75 32.9148 75.3889 32.9253 75.8618L33.0511 81.5643L28.0258 78.6073C27.609 78.362 27.066 78.4972 26.8223 78.9069L26.1167 80.0931C25.873 80.5028 26.0239 81.0269 26.4511 81.2546L31.6022 84L26.4511 86.7455C26.0238 86.9732 25.8729 87.4972 26.1167 87.9069L26.8223 89.0931C27.066 89.5028 27.609 89.638 28.0258 89.3928L33.0511 86.4357L32.9252 92.1382C32.9148 92.6111 33.307 93 33.7944 93H35.2056C35.6931 93 36.0852 92.6111 36.0748 92.1382L35.9489 86.4357L40.9742 89.3927C41.391 89.638 41.934 89.5028 42.1777 89.0931L42.8833 87.9069C43.127 87.4972 42.9762 86.9732 42.5489 86.7455V86.7455Z" />
	</symbol>

	<symbol id="raindrop" viewBox="0 0 100 100">
		<path d="M54.5637 8.88271C53.1877 3.82373 45.996 3.58818 44.4363 8.88271C36.3313 36.614 19 44.1497 19 63.6948C19 80.9987 32.6418 94.9997 49.5 94.9997C66.3582 94.9997 80 80.9987 80 63.6948C80 44.0513 62.7068 36.7405 54.5637 8.88271Z" />
	</symbol>

	<symbol id="rain" viewBox="0 0 512 512">
		<path  d="M183.9 370.1c-7.6-4.4-17.4-1.8-21.8 6l-64 112c-4.4 7.7-1.7 17.5 6 21.8 2.5 1.4 5.2 2.1 7.9 2.1 5.5 0 10.9-2.9 13.9-8.1l64-112c4.4-7.6 1.7-17.4-6-21.8zm96 0c-7.6-4.4-17.4-1.8-21.8 6l-64 112c-4.4 7.7-1.7 17.5 6 21.8 2.5 1.4 5.2 2.1 7.9 2.1 5.5 0 10.9-2.9 13.9-8.1l64-112c4.4-7.6 1.7-17.4-6-21.8zm-192 0c-7.6-4.4-17.4-1.8-21.8 6l-64 112c-4.4 7.7-1.7 17.5 6 21.8 2.5 1.4 5.2 2.1 7.9 2.1 5.5 0 10.9-2.9 13.9-8.1l64-112c4.4-7.6 1.7-17.4-6-21.8zm384 0c-7.6-4.4-17.4-1.8-21.8 6l-64 112c-4.4 7.7-1.7 17.5 6 21.8 2.5 1.4 5.2 2.1 7.9 2.1 5.5 0 10.9-2.9 13.9-8.1l64-112c4.4-7.6 1.7-17.4-6-21.8zm-96 0c-7.6-4.4-17.4-1.8-21.8 6l-64 112c-4.4 7.7-1.7 17.5 6 21.8 2.5 1.4 5.2 2.1 7.9 2.1 5.5 0 10.9-2.9 13.9-8.1l64-112c4.4-7.6 1.7-17.4-6-21.8zM416 128c-.6 0-1.1.2-1.6.2 1.1-5.2 1.6-10.6 1.6-16.2 0-44.2-35.8-80-80-80-24.6 0-46.3 11.3-61 28.8C256.4 24.8 219.3 0 176 0 114.2 0 64 50.1 64 112c0 7.3.8 14.3 2.1 21.2C27.8 145.8 0 181.5 0 224c0 53 43 96 96 96h320c53 0 96-43 96-96s-43-96-96-96z"></path>
	</symbol>
	
	<symbol id="cloudy" viewBox="0 0 640 512">
		<path d="M537.6 226.6c4.1-10.7 6.4-22.4 6.4-34.6 0-53-43-96-96-96-19.7 0-38.1 6-53.3 16.2C367 64.2 315.3 32 256 32c-88.4 0-160 71.6-160 160 0 2.7.1 5.4.2 8.1C40.2 219.8 0 273.2 0 336c0 79.5 64.5 144 144 144h368c70.7 0 128-57.3 128-128 0-61.9-44-113.6-102.4-125.4z"></path>
	</symbol>


	<symbol id="partly-cloudy-night" viewBox="0 0 512 512">
		<path  d="M342.8 352.7c5.7-9.6 9.2-20.7 9.2-32.7 0-35.3-28.7-64-64-64-17.2 0-32.8 6.9-44.3 17.9-16.3-29.6-47.5-49.9-83.7-49.9-53 0-96 43-96 96 0 2 .5 3.8.6 5.7C27.1 338.8 0 374.1 0 416c0 53 43 96 96 96h240c44.2 0 80-35.8 80-80 0-41.9-32.3-75.8-73.2-79.3zm222.5-54.3c-93.1 17.7-178.5-53.7-178.5-147.7 0-54.2 29-104 76.1-130.8 7.3-4.1 5.4-15.1-2.8-16.7C448.4 1.1 436.7 0 425 0 319.1 0 233.1 85.9 233.1 192c0 8.5.7 16.8 1.8 25 5.9 4.3 11.6 8.9 16.7 14.2 11.4-4.7 23.7-7.2 36.4-7.2 52.9 0 96 43.1 96 96 0 3.6-.2 7.2-.6 10.7 23.6 10.8 42.4 29.5 53.5 52.6 54.4-3.4 103.7-29.3 137.1-70.4 5.3-6.5-.5-16.1-8.7-14.5z"></path>
	</symbol>

	<symbol id="partly-cloudy-day" viewBox="0 0 100 100">
		<path id="sun" fill="currentColor" d="M22.625 57.3594C15.7969 50.5312 15.7969 39.4375 22.625 32.625C29.4531 25.7969 40.5469 25.7969 47.375 32.625C48.8906 34.1406 50.0156 35.8906 50.8594 37.7344C52.3906 37.1562 54 36.7969 55.6563 36.5625L60.3125 22.6719C60.9375 20.8125 59.1719 19.0625 57.3125 19.6719L43.5938 24.25L37.1094 11.3125C36.25 9.5625 33.75 9.5625 32.875 11.3125L26.4062 24.25L12.6719 19.6719C10.8281 19.0625 9.0625 20.8281 9.67188 22.6719L14.25 36.3906L1.3125 42.875C-0.4375 43.75 -0.4375 46.2344 1.3125 47.1094L14.25 53.5781L9.67188 67.2969C9.04688 69.1563 10.8125 70.9062 12.6719 70.2969L24.5625 66.3438C25.5156 64.4062 26.75 62.6406 28.25 61.1094C26.2031 60.2656 24.2812 59.0156 22.625 57.3594ZM21.875 44.9844C21.875 51.3594 26.4531 56.6719 32.4844 57.8438C33.7344 57.1094 35.0312 56.4688 36.4219 56.0156C37.2656 49.0938 41.2656 43.125 46.9531 39.6094C44.8906 35.0625 40.3125 31.875 35 31.875C27.7656 31.875 21.875 37.75 21.875 44.9844Z" />
		<path id="cloud" fill="currentColor" d="M89.375 60.625C89.4062 60.3281 89.5 60.0469 89.5 59.75C89.5 54.2344 85.0156 49.75 79.5 49.75C77.5312 49.75 75.7188 50.3437 74.1719 51.3125C71.4219 45.25 65.3438 41 58.25 41C48.5938 41 40.75 48.8281 40.75 58.5C40.75 58.9687 40.8594 59.4062 40.8906 59.8594C33.1406 60.4375 27 66.8438 27 74.75C27 83.0312 33.7188 89.75 42 89.75H84.5C92.7812 89.75 99.5 83.0312 99.5 74.75C99.5 68.1719 95.25 62.6563 89.375 60.625Z" />
	</symbol>

	<symbol id="fog" viewBox="0 0 640 512">
		<path  d="M624 368H80c-8.8 0-16 7.2-16 16v16c0 8.8 7.2 16 16 16h544c8.8 0 16-7.2 16-16v-16c0-8.8-7.2-16-16-16zm-480 96H16c-8.8 0-16 7.2-16 16v16c0 8.8 7.2 16 16 16h128c8.8 0 16-7.2 16-16v-16c0-8.8-7.2-16-16-16zm416 0H224c-8.8 0-16 7.2-16 16v16c0 8.8 7.2 16 16 16h336c8.8 0 16-7.2 16-16v-16c0-8.8-7.2-16-16-16zM144 288h156.1c22.5 19.7 51.6 32 83.9 32s61.3-12.3 83.9-32H528c61.9 0 112-50.1 112-112S589.9 64 528 64c-18 0-34.7 4.6-49.7 12.1C454 31 406.8 0 352 0c-41 0-77.8 17.3-104 44.8C221.8 17.3 185 0 144 0 64.5 0 0 64.5 0 144s64.5 144 144 144z"></path>
	</symbol>

	<symbol id="cloud" viewBox="0 0 640 512">
		<path  d="M537.6 226.6c4.1-10.7 6.4-22.4 6.4-34.6 0-53-43-96-96-96-19.7 0-38.1 6-53.3 16.2C367 64.2 315.3 32 256 32c-88.4 0-160 71.6-160 160 0 2.7.1 5.4.2 8.1C40.2 219.8 0 273.2 0 336c0 79.5 64.5 144 144 144h368c70.7 0 128-57.3 128-128 0-61.9-44-113.6-102.4-125.4z"></path>
	</symbol>

	<symbol id="clear-night" viewBox="0 0 512 512">
		<path  d="M283.211 512c78.962 0 151.079-35.925 198.857-94.792 7.068-8.708-.639-21.43-11.562-19.35-124.203 23.654-238.262-71.576-238.262-196.954 0-72.222 38.662-138.635 101.498-174.394 9.686-5.512 7.25-20.197-3.756-22.23A258.156 258.156 0 0 0 283.211 0c-141.309 0-256 114.511-256 256 0 141.309 114.511 256 256 256z"></path>
	</symbol>
	
	<symbol id="clear-day" viewBox="0 0 512 512">
		<path  d="M256 160c-52.9 0-96 43.1-96 96s43.1 96 96 96 96-43.1 96-96-43.1-96-96-96zm246.4 80.5l-94.7-47.3 33.5-100.4c4.5-13.6-8.4-26.5-21.9-21.9l-100.4 33.5-47.4-94.8c-6.4-12.8-24.6-12.8-31 0l-47.3 94.7L92.7 70.8c-13.6-4.5-26.5 8.4-21.9 21.9l33.5 100.4-94.7 47.4c-12.8 6.4-12.8 24.6 0 31l94.7 47.3-33.5 100.5c-4.5 13.6 8.4 26.5 21.9 21.9l100.4-33.5 47.3 94.7c6.4 12.8 24.6 12.8 31 0l47.3-94.7 100.4 33.5c13.6 4.5 26.5-8.4 21.9-21.9l-33.5-100.4 94.7-47.3c13-6.5 13-24.7.2-31.1zm-155.9 106c-49.9 49.9-131.1 49.9-181 0-49.9-49.9-49.9-131.1 0-181 49.9-49.9 131.1-49.9 181 0 49.9 49.9 49.9 131.1 0 181z"></path>
	</symbol>

	<symbol id="wind" viewBox="0 0 512 512">
		<path fill="currentColor" d="M156.7 256H16c-8.8 0-16 7.2-16 16v32c0 8.8 7.2 16 16 16h142.2c15.9 0 30.8 10.9 33.4 26.6 3.3 20-12.1 37.4-31.6 37.4-14.1 0-26.1-9.2-30.4-21.9-2.1-6.3-8.6-10.1-15.2-10.1H81.6c-9.8 0-17.7 8.8-15.9 18.4 8.6 44.1 47.6 77.6 94.2 77.6 57.1 0 102.7-50.1 95.2-108.6C249 291 205.4 256 156.7 256zM16 224h336c59.7 0 106.8-54.8 93.8-116.7-7.6-36.2-36.9-65.5-73.1-73.1-55.4-11.6-105.1 24.9-114.9 75.5-1.9 9.6 6.1 18.3 15.8 18.3h32.8c6.7 0 13.1-3.8 15.2-10.1C325.9 105.2 337.9 96 352 96c19.4 0 34.9 17.4 31.6 37.4-2.6 15.7-17.4 26.6-33.4 26.6H16c-8.8 0-16 7.2-16 16v32c0 8.8 7.2 16 16 16zm384 32H243.7c19.3 16.6 33.2 38.8 39.8 64H400c26.5 0 48 21.5 48 48s-21.5 48-48 48c-17.9 0-33.3-9.9-41.6-24.4-2.9-5-8.7-7.6-14.5-7.6h-33.8c-10.9 0-19 10.8-15.3 21.1 17.8 50.6 70.5 84.8 129.4 72.3 41.2-8.7 75.1-41.6 84.7-82.7C526 321.5 470.5 256 400 256z"></path>
	</symbol>

	<symbol id="arrow-down" viewBox="0 0 448 512">
		<path d="M413.1 222.5l22.2 22.2c9.4 9.4 9.4 24.6 0 33.9L241 473c-9.4 9.4-24.6 9.4-33.9 0L12.7 278.6c-9.4-9.4-9.4-24.6 0-33.9l22.2-22.2c9.5-9.5 25-9.3 34.3.4L184 343.4V56c0-13.3 10.7-24 24-24h32c13.3 0 24 10.7 24 24v287.4l114.8-120.5c9.3-9.8 24.8-10 34.3-.4z"></path>
	</symbol>

	<symbol id="arrow-up" viewBox="0 0 100 100">
		<path d="M7.49701 57.4824L2.56594 52.5276C0.47801 50.4296 0.47801 47.0372 2.56594 44.9615L45.724 1.57348C47.8119 -0.524496 51.1881 -0.524496 53.2538 1.57348L96.4341 44.9615C98.522 47.0595 98.522 50.452 96.4341 52.5276L91.503 57.4824C89.3928 59.6027 85.95 59.5581 83.8842 57.3931L58.3848 30.4988L58.3848 94.6435C58.3848 97.6119 56.0081 100 53.0539 100L45.9461 100C42.9919 100 40.6152 97.6119 40.6152 94.6435L40.6152 30.4988L15.1157 57.3931C13.05 59.5804 9.60716 59.625 7.49701 57.4824V57.4824Z"/>
	</symbol>

	<symbol id="sunset" viewBox="0 0 100 100">
		<path d="M60.3255 25.6294L61.5964 26.8681C62.1345 27.3926 62.1345 28.2407 61.5964 28.7596L50.4732 39.6066C49.9351 40.1311 49.0649 40.1311 48.5325 39.6066L37.4036 28.7596C36.8655 28.2351 36.8655 27.387 37.4036 26.8681L38.6745 25.6294C39.2183 25.0993 40.1057 25.1105 40.6381 25.6517L47.2101 32.3753V16.3391C47.2101 15.597 47.8226 15 48.584 15H50.416C51.1774 15 51.7899 15.597 51.7899 16.3391V32.3753L58.3619 25.6517C58.8943 25.1049 59.7817 25.0937 60.3255 25.6294V25.6294Z"/>
		<path fill-rule="evenodd" clip-rule="evenodd" d="M39.125 76C39.125 70.0074 44.0074 65.125 50 65.125C55.9926 65.125 60.875 70.0074 60.875 76H39.125ZM35.5085 76C35.5085 72.2872 36.9217 68.5744 39.748 65.748C45.4008 60.0953 54.5992 60.0953 60.252 65.748C63.0783 68.5744 64.4915 72.2872 64.4915 76H78.9972C78.9995 75.3024 78.637 74.6064 77.9125 74.2441L67.1848 68.8859L70.9797 57.5125C71.4895 55.9719 70.0281 54.5105 68.4988 55.0316L57.1254 58.8266L51.7559 48.0875C51.0309 46.6375 48.9691 46.6375 48.2441 48.0875L42.8859 58.8152L31.5012 55.0203C29.9605 54.5105 28.4992 55.9719 29.0203 57.5012L32.8152 68.8746L22.0875 74.2441C21.3625 74.6066 21 75.3033 21 76H35.5085Z"/>
		<rect x="12" y="78" width="76" height="5" rx="2.5"/>
	</symbol>

	<symbol id="sunrise" viewBox="0 0 100 100">
		<path d="M38.6745 29.3706L37.4036 28.1319C36.8655 27.6074 36.8655 26.7593 37.4036 26.2404L48.5268 15.3934C49.0649 14.8689 49.9351 14.8689 50.4675 15.3934L61.5964 26.2404C62.1345 26.7649 62.1345 27.613 61.5964 28.1319L60.3255 29.3706C59.7817 29.9007 58.8943 29.8895 58.3619 29.3483L51.7899 22.6247L51.7899 38.6609C51.7899 39.403 51.1774 40 50.416 40L48.584 40C47.8226 40 47.2101 39.403 47.2101 38.6609L47.2101 22.6247L40.6381 29.3483C40.1057 29.8951 39.2183 29.9063 38.6745 29.3706V29.3706Z"/>
		<path fill-rule="evenodd" clip-rule="evenodd" d="M39.125 76C39.125 70.0074 44.0074 65.125 50 65.125C55.9926 65.125 60.875 70.0074 60.875 76H39.125ZM35.5085 76C35.5085 72.2872 36.9217 68.5744 39.748 65.748C45.4008 60.0953 54.5992 60.0953 60.252 65.748C63.0783 68.5744 64.4915 72.2872 64.4915 76H78.9972C78.9995 75.3024 78.637 74.6064 77.9125 74.2441L67.1848 68.8859L70.9797 57.5125C71.4895 55.9719 70.0281 54.5105 68.4988 55.0316L57.1254 58.8266L51.7559 48.0875C51.0309 46.6375 48.9691 46.6375 48.2441 48.0875L42.8859 58.8152L31.5012 55.0203C29.9605 54.5105 28.4992 55.9719 29.0203 57.5012L32.8152 68.8746L22.0875 74.2441C21.3625 74.6066 21 75.3033 21 76H35.5085Z"/>
		<rect x="12" y="78" width="76" height="5" rx="2.5"/>
	</symbol>

	<symbol id="trash" viewBox="0 0 448 512">
		<path d="M432 32H312l-9.4-18.7A24 24 0 0 0 281.1 0H166.8a23.72 23.72 0 0 0-21.4 13.3L136 32H16A16 16 0 0 0 0 48v32a16 16 0 0 0 16 16h416a16 16 0 0 0 16-16V48a16 16 0 0 0-16-16zM53.2 467a48 48 0 0 0 47.9 45h245.8a48 48 0 0 0 47.9-45L416 128H32z"></path>
	</symbol>


</svg>