<svg width="100" height="100" viewBox="0 0 100 100" fill="none" xmlns="http://www.w3.org/2000/svg">
<path d="M21.1068 69.6109C19.8005 68.8547 18.1161 69.3016 17.3599 70.6422L6.35987 89.8922C5.60362 91.2156 6.06769 92.9 7.39112 93.6391C7.82081 93.8797 8.28487 94 8.74894 94C9.69425 94 10.6224 93.5016 11.138 92.6078L22.138 73.3578C22.8943 72.0516 22.4302 70.3672 21.1068 69.6109ZM77.4989 28C77.3958 28 77.3099 28.0344 77.2239 28.0344C77.413 27.1406 77.4989 26.2125 77.4989 25.25C77.4989 17.6531 71.3458 11.5 63.7489 11.5C59.5208 11.5 55.7911 13.4422 53.2646 16.45C50.0677 10.2625 43.6911 6 36.2489 6C25.6271 6 16.9989 14.6109 16.9989 25.25C16.9989 26.5047 17.1364 27.7078 17.3599 28.8937C10.7771 31.0594 5.99894 37.1953 5.99894 44.5C5.99894 53.6094 13.3896 61 22.4989 61H77.4989C86.6083 61 93.9989 53.6094 93.9989 44.5C93.9989 35.3906 86.6083 28 77.4989 28Z" fill="black"/>
<path d="M61.3599 70.6422C62.1161 69.3016 63.8005 68.8547 65.1067 69.6109C66.4302 70.3672 66.8942 72.0516 66.138 73.3578L55.138 92.6078C54.6224 93.5016 53.6942 94 52.7489 94C52.2849 94 51.8208 93.8797 51.3911 93.6391C50.0677 92.9 49.6036 91.2156 50.3599 89.8922L61.3599 70.6422Z" fill="black"/>
<path d="M87.5489 86.7455L82.3978 84L87.5489 81.2545C87.9762 81.0268 88.1271 80.5028 87.8833 80.0931L87.1777 78.9069C86.934 78.4972 86.391 78.362 85.9742 78.6072L80.9489 81.5643L81.0748 75.8618C81.0852 75.3889 80.6931 75 80.2056 75H78.7944C78.307 75 77.9148 75.3889 77.9253 75.8618L78.0511 81.5643L73.0258 78.6073C72.609 78.362 72.066 78.4972 71.8223 78.9069L71.1167 80.0931C70.873 80.5028 71.0239 81.0269 71.4511 81.2546L76.6022 84L71.4511 86.7455C71.0238 86.9732 70.8729 87.4972 71.1167 87.9069L71.8223 89.0931C72.066 89.5028 72.609 89.638 73.0258 89.3928L78.0511 86.4357L77.9252 92.1382C77.9148 92.6111 78.307 93 78.7944 93H80.2056C80.6931 93 81.0852 92.6111 81.0748 92.1382L80.9489 86.4357L85.9742 89.3927C86.391 89.638 86.934 89.5028 87.1777 89.0931L87.8833 87.9069C88.127 87.4972 87.9762 86.9732 87.5489 86.7455V86.7455Z" fill="black"/>
<path d="M42.5489 86.7455L37.3978 84L42.5489 81.2545C42.9762 81.0268 43.1271 80.5028 42.8833 80.0931L42.1777 78.9069C41.934 78.4972 41.391 78.362 40.9742 78.6072L35.9489 81.5643L36.0748 75.8618C36.0852 75.3889 35.6931 75 35.2056 75H33.7944C33.307 75 32.9148 75.3889 32.9253 75.8618L33.0511 81.5643L28.0258 78.6073C27.609 78.362 27.066 78.4972 26.8223 78.9069L26.1167 80.0931C25.873 80.5028 26.0239 81.0269 26.4511 81.2546L31.6022 84L26.4511 86.7455C26.0238 86.9732 25.8729 87.4972 26.1167 87.9069L26.8223 89.0931C27.066 89.5028 27.609 89.638 28.0258 89.3928L33.0511 86.4357L32.9252 92.1382C32.9148 92.6111 33.307 93 33.7944 93H35.2056C35.6931 93 36.0852 92.6111 36.0748 92.1382L35.9489 86.4357L40.9742 89.3927C41.391 89.638 41.934 89.5028 42.1777 89.0931L42.8833 87.9069C43.127 87.4972 42.9762 86.9732 42.5489 86.7455V86.7455Z" fill="black"/>
</svg>
