<svg width="100" height="100" viewBox="0 0 100 100" fill="none" xmlns="http://www.w3.org/2000/svg">
<path d="M22.625 57.3594C15.7969 50.5312 15.7969 39.4375 22.625 32.625C29.4531 25.7969 40.5469 25.7969 47.375 32.625C48.8906 34.1406 50.0156 35.8906 50.8594 37.7344C52.3906 37.1562 54 36.7969 55.6563 36.5625L60.3125 22.6719C60.9375 20.8125 59.1719 19.0625 57.3125 19.6719L43.5938 24.25L37.1094 11.3125C36.25 9.5625 33.75 9.5625 32.875 11.3125L26.4062 24.25L12.6719 19.6719C10.8281 19.0625 9.0625 20.8281 9.67188 22.6719L14.25 36.3906L1.3125 42.875C-0.4375 43.75 -0.4375 46.2344 1.3125 47.1094L14.25 53.5781L9.67188 67.2969C9.04688 69.1563 10.8125 70.9062 12.6719 70.2969L24.5625 66.3438C25.5156 64.4062 26.75 62.6406 28.25 61.1094C26.2031 60.2656 24.2812 59.0156 22.625 57.3594ZM21.875 44.9844C21.875 51.3594 26.4531 56.6719 32.4844 57.8438C33.7344 57.1094 35.0312 56.4688 36.4219 56.0156C37.2656 49.0938 41.2656 43.125 46.9531 39.6094C44.8906 35.0625 40.3125 31.875 35 31.875C27.7656 31.875 21.875 37.75 21.875 44.9844Z" fill="black"/>
<path d="M89.375 60.625C89.4062 60.3281 89.5 60.0469 89.5 59.75C89.5 54.2344 85.0156 49.75 79.5 49.75C77.5312 49.75 75.7188 50.3437 74.1719 51.3125C71.4219 45.25 65.3438 41 58.25 41C48.5938 41 40.75 48.8281 40.75 58.5C40.75 58.9687 40.8594 59.4062 40.8906 59.8594C33.1406 60.4375 27 66.8438 27 74.75C27 83.0312 33.7188 89.75 42 89.75H84.5C92.7812 89.75 99.5 83.0312 99.5 74.75C99.5 68.1719 95.25 62.6563 89.375 60.625Z" fill="black"/>
</svg>
